<?xml version="1.0" standalone="no"?><!DOCTYPE svg PUBLIC "-//W3C//DTD SVG 1.1//EN" "http://www.w3.org/Graphics/SVG/1.1/DTD/svg11.dtd"><svg t="1591535078520" class="icon" viewBox="0 0 1024 1024" version="1.1" xmlns="http://www.w3.org/2000/svg" p-id="1174" width="200" height="200" xmlns:xlink="http://www.w3.org/1999/xlink"><defs><style type="text/css"></style></defs><path d="M512.024559 959.403796c-247.088538 0-448.101691-201.014176-448.101691-448.101691S264.937045 63.199391 512.024559 63.199391s448.101691 201.014176 448.101691 448.101691S759.113097 959.403796 512.024559 959.403796zM512.024559 97.076966c-228.40706 0-414.225139 185.818079-414.225139 414.225139s185.818079 414.225139 414.225139 414.225139S926.249699 739.709165 926.249699 511.302105 740.431619 97.076966 512.024559 97.076966z" p-id="1175" fill="#515151"></path><path d="M636.329656 636.886335 387.697973 636.886335c-9.351995 0-16.938788-7.586792-16.938788-16.938788s7.586792-16.938788 16.938788-16.938788l248.631684 0c9.351995 0 16.938788 7.586792 16.938788 16.938788S645.681652 636.886335 636.329656 636.886335z" p-id="1176" fill="#515151"></path><path d="M658.980539 534.791076 365.06858 534.791076c-9.351995 0-16.938788-7.586792-16.938788-16.938788s7.586792-16.938788 16.938788-16.938788l293.91196 0c9.351995 0 16.938788 7.586792 16.938788 16.938788S668.332535 534.791076 658.980539 534.791076z" p-id="1177" fill="#515151"></path><path d="M512.024559 740.459249c-9.351995 0-16.938788-7.586792-16.938788-16.938788L495.085772 447.870424c0-9.351995 7.586792-16.938788 16.938788-16.938788s16.938788 7.586792 16.938788 16.938788l0 275.650037C528.963347 732.871433 521.376555 740.459249 512.024559 740.459249z" p-id="1178" fill="#515151"></path><path d="M512.024559 470.587821c-4.344958 0-8.667404-1.653663-11.975752-4.962012L388.910591 354.465081c-6.616698-6.616698-6.616698-17.33583 0-23.952528 6.639211-6.639211 17.35732-6.594185 23.952528 0L524.001335 441.672258c6.616698 6.616698 6.616698 17.33583 0 23.952528C520.692986 468.933135 516.369517 470.587821 512.024559 470.587821z" p-id="1179" fill="#515151"></path><path d="M511.738034 470.587821c-4.344958 0-8.667404-1.653663-11.975752-4.962012-6.616698-6.616698-6.616698-17.33583 0-23.952528l117.467365-117.467365c6.616698-6.616698 17.33583-6.616698 23.952528 0 6.616698 6.616698 6.616698 17.33583 0 23.952528L523.714809 465.624786C520.40646 468.933135 516.082992 470.587821 511.738034 470.587821z" p-id="1180" fill="#515151"></path></svg>